<svg width="253" height="153" viewBox="0 0 253 153" xmlns="http://www.w3.org/2000/svg"><title>Artboard 1</title><g stroke="#D14542" fill="#D14542" fill-rule="evenodd"><path d="M67.533 79.118c-.176.26-.494 1.08-.955 2.456-.46 1.38-1.02 3.107-1.68 5.188a433.073 433.073 0 0 0-2.14 6.98c-.77 2.572-1.56 5.198-2.37 7.876-.813 2.68-1.592 5.304-2.338 7.878a1647 1647 0 0 0-3.49 12.206 90.22 90.22 0 0 1-.724 2.496c-.22.83-.57 1.754-1.053 2.77a18.6 18.6 0 0 1-1.712 2.885c-.658.91-1.38 1.663-2.172 2.262-.79.597-1.603.896-2.436.896-1.406 0-2.426-.467-3.062-1.402-.638-.937-.955-2.65-.955-5.147v-1.092c0-.364.02-.754.066-1.17.044-.83.374-2.393.99-4.68.613-2.288 1.35-4.874 2.205-7.76a452.724 452.724 0 0 1 2.766-8.97 2410.89 2410.89 0 0 1 2.668-8.307 129.977 129.977 0 0 1-7.572 7.762 81.43 81.43 0 0 1-8.363 6.94c-2.854 2.057-5.73 3.733-8.626 5.032-2.897 1.298-5.686 1.95-8.363 1.95-3.073 0-5.718-.677-7.935-2.028a17.408 17.408 0 0 1-5.5-5.304c-1.448-2.184-2.524-4.653-3.226-7.41A33.328 33.328 0 0 1 .5 93.157V92.14c0-.31.02-.622.066-.934.263-4.992.976-10.113 2.14-15.365a125.037 125.037 0 0 1 4.577-15.676 144.17 144.17 0 0 1 6.552-15.248c2.48-4.965 5.18-9.658 8.1-14.078 2.918-4.418 6.024-8.487 9.316-12.206 3.293-3.717 6.673-6.915 10.142-9.593C44.86 6.36 48.36 4.27 51.894 2.76 55.427 1.255 58.93.5 62.396.5c3.994 0 7.858 1.092 11.59 3.275 3.73 2.184 7.22 5.72 10.47 10.607.744 1.092 1.217 2.197 1.414 3.314.197 1.12.296 2.17.296 3.16 0 2.338-.56 4.186-1.68 5.537-1.118 1.353-2.446 2.028-3.983 2.028-1.405 0-2.71-.74-3.918-2.222-1.208-1.482-2.558-3.6-4.05-6.356-1.405-2.496-2.953-4.302-4.642-5.42-1.69-1.118-3.523-1.677-5.5-1.677-3.072 0-6.353 1.275-9.843 3.822-3.49 2.548-6.947 5.916-10.37 10.1-3.426 4.187-6.707 8.97-9.846 14.35a149.788 149.788 0 0 0-8.33 16.536c-2.415 5.642-4.335 11.206-5.76 16.69-1.428 5.485-2.14 10.41-2.14 14.78 0 1.455.098 2.95.295 4.483.197 1.534.57 2.926 1.12 4.173.547 1.247 1.293 2.274 2.238 3.08.944.808 2.14 1.208 3.59 1.208 1.623 0 3.467-.545 5.53-1.638 2.062-1.09 4.203-2.52 6.42-4.29 2.216-1.767 4.444-3.768 6.684-6.005a107.966 107.966 0 0 0 6.255-6.785c1.93-2.287 3.644-4.485 5.136-6.59 1.492-2.106 2.61-3.94 3.358-5.5l6.125-18.328c.746-1.975 1.722-3.378 2.93-4.21 1.207-.832 2.447-1.25 3.72-1.25.615 0 1.23.106 1.844.313a4.6 4.6 0 0 1 1.645.975c.483.442.866 1.014 1.152 1.716.285.702.428 1.52.428 2.456 0 2.496-.22 4.836-.658 7.02-.44 2.186-1 4.316-1.68 6.396-.68 2.08-1.437 4.173-2.27 6.278a157.76 157.76 0 0 0-2.434 6.592zM150.565 94.405c-1.933 2.6-4.182 5.134-6.75 7.604a68.58 68.58 0 0 1-7.934 6.59c-2.722 1.923-5.4 3.47-8.032 4.64-2.634 1.17-5.004 1.755-7.11 1.755-2.108 0-3.82-.702-5.138-2.105-1.316-1.403-1.975-3.795-1.975-7.176 0-2.392.35-5.174 1.053-8.346-1.142 2.03-2.567 4.083-4.28 6.162a37.395 37.395 0 0 1-5.86 5.694c-2.195 1.716-4.653 3.106-7.375 4.17-2.722 1.066-5.686 1.6-8.89 1.6-1.447 0-2.842-.182-4.18-.546a8.718 8.718 0 0 1-3.523-1.87c-1.01-.884-1.822-2.066-2.437-3.55-.615-1.48-.922-3.34-.922-5.576 0-.052.09-.845.265-2.38.174-1.532.734-3.95 1.68-7.253.942-3.3 2.403-7.578 4.378-12.83 1.976-5.252 4.763-11.62 8.362-19.107.922-1.976 1.986-3.393 3.193-4.25 1.208-.86 2.513-1.288 3.918-1.288.615 0 1.25.092 1.91.272.66.184 1.272.468 1.844.858.57.39 1.03.885 1.383 1.48.352.6.527 1.287.527 2.068 0 .52-.066 1.015-.198 1.48-.22.887-.69 2.042-1.416 3.47-.725 1.432-1.57 3.07-2.534 4.916a434.27 434.27 0 0 0-3.062 5.966 86.257 86.257 0 0 0-2.996 6.63 66.054 66.054 0 0 0-2.37 6.98c-.66 2.365-1.032 4.666-1.12 6.9 0 .937.22 1.795.66 2.574.437.78 1.16 1.17 2.172 1.17 2.853 0 5.574-.936 8.165-2.808 2.59-1.87 4.982-4.198 7.18-6.98a66.894 66.894 0 0 0 5.957-8.97c1.778-3.197 3.26-6.12 4.445-8.773a44.953 44.953 0 0 0 2.206-5.695 56.443 56.443 0 0 1 2.074-5.615c.746-1.716 1.602-3.145 2.567-4.29.964-1.143 2.172-1.715 3.62-1.715 1.58 0 2.83.6 3.754 1.793.922 1.197 1.382 2.626 1.382 4.29 0 .937-.295 2.223-.888 3.86-.594 1.64-1.34 3.51-2.24 5.616a668.06 668.06 0 0 1-2.93 6.746 118.967 118.967 0 0 0-2.93 7.292c-.9 2.47-1.645 4.89-2.238 7.255s-.89 4.562-.89 6.59c0 1.872.966 2.807 2.897 2.807 1.36 0 3.05-.468 5.07-1.402 2.02-.937 4.137-2.25 6.354-3.94 2.217-1.688 4.434-3.678 6.65-5.965a48.167 48.167 0 0 0 5.894-7.41l.66 10.608z"/><path d="M152.607 90.503c-.483 1.197-.955 2.588-1.416 4.174-.46 1.586-.69 3.002-.69 4.25 0 .78.132 1.403.395 1.872.264.467.77.7 1.516.7.922 0 2.074-.323 3.457-.974 1.382-.65 2.874-1.51 4.478-2.574a72.297 72.297 0 0 0 5.004-3.666 160.94 160.94 0 0 0 5.168-4.29 143.334 143.334 0 0 0 4.906-4.444 187.158 187.158 0 0 0 4.182-4.095 2.97 2.97 0 0 1 1.25-.78c.482-.156.9-.234 1.252-.234.877 0 1.603.364 2.173 1.093.57.728.856 1.688.856 2.886 0 1.09-.308 2.313-.92 3.665-.616 1.353-1.69 2.68-3.23 3.977-2.81 3.07-5.64 5.98-8.493 8.736-2.854 2.756-5.695 5.186-8.526 7.29-2.832 2.108-5.642 3.784-8.43 5.033-2.787 1.247-5.497 1.87-8.132 1.87-1.8 0-3.304-.285-4.51-.856-1.21-.573-2.173-1.353-2.897-2.34-.725-.988-1.24-2.157-1.548-3.51a19.255 19.255 0 0 1-.46-4.29c0-2.547.318-5.16.954-7.84.636-2.675 1.393-5.133 2.27-7.368a936.572 936.572 0 0 1 4.677-12.09c1.58-4.003 3.03-7.67 4.348-10.998l19.95-50.305c.79-2.028 1.854-3.458 3.194-4.29 1.34-.83 2.688-1.248 4.05-1.248 1.36 0 2.6.44 3.72 1.325s1.68 2.314 1.68 4.29c0 .936-.188 1.924-.56 2.963a36.26 36.26 0 0 1-1.416 3.354 583.747 583.747 0 0 0-3.918 8.968c-1.515 3.537-3.14 7.384-4.874 11.543-1.733 4.16-3.512 8.49-5.332 12.986-1.823 4.496-3.6 8.877-5.335 13.14a1531.35 1531.35 0 0 0-4.872 12.13c-1.515 3.82-2.82 7.136-3.918 9.943z"/><path d="M245.912 76.387a15.134 15.134 0 0 1 1.713-1.015c.526-.258 1.03-.39 1.515-.39.964 0 1.69.43 2.173 1.287.482.857.724 1.91.724 3.158 0 1.354-.295 2.73-.89 4.134a8.713 8.713 0 0 1-2.666 3.51 677.858 677.858 0 0 0-12.574 11.387c-3.688 3.43-7.168 6.382-10.438 8.852-3.27 2.47-6.463 4.38-9.58 5.732-3.117 1.35-6.453 2.027-10.01 2.027-3.336 0-5.915-.728-7.736-2.183-1.822-1.455-2.733-3.457-2.733-6.006v-.584c0-.18.02-.402.065-.663.174-1.56.856-3.354 2.04-5.38 1.187-2.03 2.613-4.135 4.28-6.318a173.663 173.663 0 0 1 5.335-6.63 315.337 315.337 0 0 0 5.235-6.357c1.602-2 2.93-3.833 3.982-5.498 1.055-1.663 1.58-3.014 1.58-4.055 0-.624-.22-1.117-.657-1.482-.438-.363-1.164-.545-2.173-.545-1.757 0-3.566.454-5.432 1.365-1.867.908-3.71 2.13-5.532 3.664-1.822 1.535-3.6 3.29-5.334 5.265a77.06 77.06 0 0 0-4.874 6.162 83.125 83.125 0 0 0-4.148 6.435c-1.25 2.156-2.316 4.145-3.193 5.965-.263.572-.637 1.38-1.12 2.418-.483 1.04-1.01 2.21-1.58 3.51a231.08 231.08 0 0 1-1.81 4.016c-.638 1.378-1.22 2.68-1.745 3.9-.527 1.22-1 2.31-1.416 3.275-.418.96-.715 1.624-.89 1.988-.22.468-.582 1.35-1.086 2.65a584.04 584.04 0 0 0-1.746 4.564c-.657 1.74-1.35 3.574-2.073 5.498-.724 1.924-1.405 3.744-2.042 5.46l-1.68 4.523c-.482 1.3-.79 2.184-.922 2.65a28.238 28.238 0 0 1-1.547 3.823c-.594 1.196-1.274 2.25-2.042 3.16a9.42 9.42 0 0 1-2.634 2.184c-.99.546-2.097.818-3.325.818-1.582 0-2.887-.378-3.92-1.13-1.03-.755-1.547-2.198-1.547-4.33 0-1.04.13-2.105.395-3.196.265-1.093.594-2.173.988-3.238a96.154 96.154 0 0 1 1.218-3.118c.418-1.015.803-1.99 1.152-2.926 2.37-5.2 4.785-10.412 7.243-15.638a699.133 699.133 0 0 0 7.077-15.52 382.217 382.217 0 0 0 6.29-15.093c1.93-4.94 3.533-9.67 4.806-14.194.35-.938.834-2.263 1.45-3.98a55.033 55.033 0 0 1 2.106-5.07c.79-1.662 1.678-3.105 2.665-4.326.988-1.222 2.052-1.834 3.193-1.834 1.757 0 3.03.402 3.82 1.21.79.806 1.185 1.987 1.185 3.548 0 .312-.044.807-.13 1.48-.09.677-.2 1.394-.33 2.147a43.52 43.52 0 0 1-.43 2.146c-.153.677-.296 1.17-.428 1.48a89.91 89.91 0 0 1 5.27-5.263 54.5 54.5 0 0 1 5.86-4.72c2.018-1.402 4.082-2.546 6.19-3.432 2.106-.883 4.213-1.325 6.32-1.325 1.447 0 2.886.208 4.312.624 1.426.416 2.7 1.027 3.82 1.832a9.604 9.604 0 0 1 2.73 3.042c.702 1.223 1.054 2.64 1.054 4.25 0 2.134-.536 4.408-1.61 6.826-1.077 2.417-2.427 4.848-4.05 7.29a91.208 91.208 0 0 1-5.27 7.138 273.68 273.68 0 0 1-5.3 6.317 513.546 513.546 0 0 0-4.148 4.834c-1.12 1.327-1.702 2.224-1.745 2.69 0 .626.198 1.132.593 1.522.395.39 1.054.585 1.976.585.746 0 1.844-.416 3.293-1.248 1.446-.83 3.477-2.274 6.09-4.327 2.61-2.054 5.926-4.81 9.942-8.27 4.02-3.45 8.968-7.806 14.85-13.058z"/></g></svg>